<svg xmlns="http://www.w3.org/2000/svg" xmlns:xlink="http://www.w3.org/1999/xlink" width="500" zoomAndPan="magnify" viewBox="0 0 375 374.999991" height="500" preserveAspectRatio="xMidYMid meet" version="1.0"><path fill="#fd6873" d="M 192.832031 54.257812 L 202.601562 48.355469 C 206.960938 45.710938 212.613281 46.574219 215.929688 50.445312 L 223.425781 59.050781 C 225.945312 62.003906 229.9375 63.292969 233.746094 62.433594 L 244.863281 59.851562 C 249.839844 58.683594 254.941406 61.265625 256.90625 66 L 261.328125 76.511719 C 262.863281 80.136719 266.242188 82.59375 270.113281 82.902344 L 281.480469 83.824219 C 286.578125 84.253906 290.632812 88.3125 291.0625 93.414062 L 291.984375 104.789062 C 292.292969 108.660156 294.75 112.039062 298.371094 113.578125 L 308.878906 118.003906 C 313.609375 119.972656 316.1875 125.074219 315.019531 130.050781 L 312.441406 141.179688 C 311.519531 144.988281 312.871094 148.984375 315.820312 151.507812 L 324.480469 158.945312 C 328.351562 162.265625 329.273438 167.917969 326.570312 172.285156 L 320.671875 182.058594 C 318.644531 185.378906 318.644531 189.558594 320.671875 192.9375 L 326.570312 202.710938 C 329.210938 207.078125 328.351562 212.734375 324.480469 216.050781 L 315.820312 223.550781 C 312.871094 226.074219 311.582031 230.066406 312.441406 233.878906 L 315.019531 245.003906 C 316.1875 249.984375 313.609375 255.085938 308.878906 257.054688 L 298.371094 261.480469 C 294.75 263.015625 292.292969 266.398438 291.984375 270.269531 L 291.0625 281.644531 C 290.632812 286.746094 286.578125 290.800781 281.480469 291.234375 L 270.113281 292.15625 C 266.242188 292.460938 262.863281 294.921875 261.328125 298.546875 L 256.90625 309.058594 C 254.941406 313.792969 249.839844 316.375 244.863281 315.207031 L 233.746094 312.625 C 229.9375 311.703125 225.945312 313.054688 223.425781 316.007812 L 215.992188 324.613281 C 212.675781 328.484375 207.023438 329.40625 202.660156 326.703125 L 192.894531 320.800781 C 189.574219 318.773438 185.398438 318.773438 182.019531 320.800781 L 172.253906 326.703125 C 167.890625 329.347656 162.238281 328.484375 158.921875 324.613281 L 151.425781 316.007812 C 148.90625 313.054688 144.914062 311.765625 141.105469 312.625 L 129.988281 315.207031 C 125.011719 316.375 119.910156 313.792969 117.945312 309.058594 L 113.523438 298.546875 C 111.988281 294.921875 108.609375 292.460938 104.738281 292.15625 L 93.371094 291.234375 C 88.273438 290.800781 84.21875 286.746094 83.789062 281.644531 L 82.867188 270.269531 C 82.5625 266.398438 80.101562 263.015625 76.480469 261.480469 L 65.972656 257.054688 C 61.242188 255.085938 58.664062 249.984375 59.832031 245.003906 L 62.410156 233.878906 C 63.332031 230.066406 61.980469 226.070312 59.03125 223.550781 L 50.429688 216.113281 C 46.5625 212.792969 45.640625 207.140625 48.34375 202.773438 L 54.242188 193 C 56.265625 189.679688 56.265625 185.5 54.242188 182.121094 L 48.34375 172.34375 C 45.703125 167.980469 46.5625 162.324219 50.429688 159.007812 L 59.03125 151.507812 C 61.980469 148.984375 63.269531 144.988281 62.410156 141.179688 L 59.832031 130.050781 C 58.664062 125.074219 61.242188 119.972656 65.972656 118.003906 L 76.480469 113.578125 C 80.101562 112.039062 82.5625 108.660156 82.867188 104.789062 L 83.789062 93.414062 C 84.21875 88.3125 88.273438 84.253906 93.371094 83.824219 L 104.738281 82.902344 C 108.609375 82.59375 111.988281 80.136719 113.523438 76.511719 L 117.945312 66 C 119.910156 61.265625 125.011719 58.683594 129.988281 59.851562 L 141.105469 62.433594 C 144.914062 63.355469 148.90625 62.003906 151.425781 59.050781 L 158.859375 50.445312 C 162.175781 46.574219 167.828125 45.652344 172.191406 48.355469 L 181.957031 54.257812 C 185.335938 56.285156 189.515625 56.285156 192.832031 54.257812 Z M 192.832031 54.257812 " fill-opacity="1" fill-rule="nonzero"/><path fill="#fe4c5c" d="M 59.832031 130.050781 L 62.410156 141.179688 C 63.332031 144.988281 61.980469 148.984375 59.03125 151.507812 L 50.429688 158.945312 C 46.5625 162.265625 45.640625 167.917969 48.34375 172.285156 L 54.242188 182.058594 C 56.265625 185.378906 56.265625 189.558594 54.242188 192.9375 L 48.34375 202.710938 C 45.703125 207.078125 46.5625 212.734375 50.429688 216.050781 L 59.03125 223.550781 C 61.980469 226.074219 63.269531 230.066406 62.410156 233.878906 L 59.832031 245.003906 C 59.585938 246.113281 59.523438 247.21875 59.585938 248.324219 L 315.265625 248.324219 C 315.390625 247.21875 315.265625 246.113281 315.019531 245.003906 L 312.441406 233.878906 C 311.519531 230.066406 312.871094 226.070312 315.820312 223.550781 L 324.480469 216.113281 C 328.351562 212.792969 329.273438 207.140625 326.570312 202.773438 L 320.671875 193 C 318.644531 189.679688 318.644531 185.5 320.671875 182.121094 L 326.570312 172.34375 C 329.210938 167.980469 328.351562 162.324219 324.480469 159.007812 L 315.820312 151.507812 C 312.871094 148.984375 311.582031 144.988281 312.441406 141.179688 L 315.019531 130.050781 C 315.265625 128.945312 315.328125 127.839844 315.265625 126.734375 L 59.585938 126.734375 C 59.460938 127.839844 59.523438 128.945312 59.832031 130.050781 Z M 59.832031 130.050781 " fill-opacity="1" fill-rule="nonzero"/><path fill="#d2edff" d="M 289.710938 187.527344 C 289.710938 189.203125 289.667969 190.878906 289.585938 192.550781 C 289.503906 194.222656 289.382812 195.894531 289.21875 197.5625 C 289.054688 199.226562 288.847656 200.890625 288.605469 202.546875 C 288.359375 204.203125 288.070312 205.855469 287.746094 207.496094 C 287.417969 209.140625 287.050781 210.773438 286.644531 212.398438 C 286.238281 214.023438 285.792969 215.636719 285.304688 217.238281 C 284.820312 218.84375 284.296875 220.433594 283.730469 222.011719 C 283.167969 223.585938 282.566406 225.148438 281.925781 226.699219 C 281.285156 228.246094 280.605469 229.777344 279.890625 231.289062 C 279.175781 232.804688 278.421875 234.300781 277.632812 235.777344 C 276.84375 237.253906 276.019531 238.710938 275.160156 240.148438 C 274.296875 241.585938 273.402344 243 272.472656 244.390625 C 271.542969 245.785156 270.578125 247.15625 269.582031 248.5 C 268.585938 249.84375 267.554688 251.164062 266.492188 252.460938 C 265.429688 253.753906 264.339844 255.023438 263.214844 256.265625 C 262.089844 257.503906 260.9375 258.71875 259.753906 259.902344 C 258.570312 261.085938 257.355469 262.242188 256.117188 263.367188 C 254.875 264.492188 253.609375 265.585938 252.316406 266.648438 C 251.019531 267.710938 249.703125 268.742188 248.355469 269.738281 C 247.011719 270.738281 245.644531 271.699219 244.253906 272.632812 C 242.859375 273.5625 241.445312 274.457031 240.011719 275.320312 C 238.574219 276.179688 237.117188 277.003906 235.644531 277.796875 C 234.167969 278.585938 232.671875 279.335938 231.160156 280.054688 C 229.644531 280.769531 228.113281 281.449219 226.570312 282.089844 C 225.023438 282.730469 223.460938 283.332031 221.882812 283.898438 C 220.308594 284.460938 218.71875 284.988281 217.117188 285.472656 C 215.515625 285.960938 213.902344 286.40625 212.277344 286.8125 C 210.65625 287.21875 209.023438 287.585938 207.378906 287.914062 C 205.738281 288.242188 204.089844 288.527344 202.433594 288.773438 C 200.777344 289.019531 199.117188 289.222656 197.453125 289.386719 C 195.785156 289.550781 194.117188 289.675781 192.445312 289.757812 C 190.773438 289.839844 189.101562 289.878906 187.425781 289.878906 C 185.75 289.878906 184.078125 289.839844 182.40625 289.757812 C 180.734375 289.675781 179.066406 289.550781 177.398438 289.386719 C 175.734375 289.222656 174.074219 289.019531 172.417969 288.773438 C 170.761719 288.527344 169.113281 288.242188 167.472656 287.914062 C 165.828125 287.585938 164.195312 287.21875 162.574219 286.8125 C 160.949219 286.40625 159.335938 285.960938 157.734375 285.472656 C 156.132812 284.988281 154.542969 284.460938 152.96875 283.898438 C 151.390625 283.332031 149.828125 282.730469 148.28125 282.089844 C 146.738281 281.449219 145.207031 280.769531 143.691406 280.054688 C 142.179688 279.335938 140.683594 278.585938 139.210938 277.796875 C 137.734375 277.003906 136.277344 276.179688 134.839844 275.320312 C 133.40625 274.457031 131.992188 273.5625 130.597656 272.632812 C 129.207031 271.699219 127.839844 270.738281 126.496094 269.738281 C 125.148438 268.742188 123.832031 267.710938 122.535156 266.648438 C 121.242188 265.585938 119.976562 264.492188 118.734375 263.367188 C 117.496094 262.242188 116.28125 261.085938 115.097656 259.902344 C 113.914062 258.71875 112.761719 257.503906 111.636719 256.265625 C 110.511719 255.023438 109.421875 253.753906 108.359375 252.460938 C 107.296875 251.164062 106.265625 249.84375 105.269531 248.5 C 104.273438 247.15625 103.308594 245.785156 102.378906 244.390625 C 101.449219 243 100.554688 241.585938 99.691406 240.148438 C 98.832031 238.710938 98.007812 237.253906 97.21875 235.777344 C 96.429688 234.300781 95.675781 232.804688 94.960938 231.289062 C 94.246094 229.777344 93.566406 228.246094 92.925781 226.699219 C 92.285156 225.148438 91.683594 223.585938 91.121094 222.011719 C 90.554688 220.433594 90.03125 218.84375 89.546875 217.238281 C 89.058594 215.636719 88.613281 214.023438 88.207031 212.398438 C 87.800781 210.773438 87.433594 209.140625 87.105469 207.496094 C 86.78125 205.855469 86.492188 204.203125 86.246094 202.546875 C 86.003906 200.890625 85.796875 199.226562 85.632812 197.5625 C 85.46875 195.894531 85.347656 194.222656 85.265625 192.550781 C 85.183594 190.878906 85.140625 189.203125 85.140625 187.527344 C 85.140625 185.855469 85.183594 184.179688 85.265625 182.507812 C 85.347656 180.832031 85.46875 179.164062 85.632812 177.496094 C 85.796875 175.828125 86.003906 174.167969 86.246094 172.511719 C 86.492188 170.855469 86.78125 169.203125 87.105469 167.5625 C 87.433594 165.917969 87.800781 164.285156 88.207031 162.660156 C 88.613281 161.035156 89.058594 159.421875 89.546875 157.816406 C 90.03125 156.214844 90.554688 154.625 91.121094 153.046875 C 91.683594 151.472656 92.285156 149.910156 92.925781 148.359375 C 93.566406 146.8125 94.246094 145.28125 94.960938 143.769531 C 95.675781 142.253906 96.429688 140.757812 97.21875 139.28125 C 98.007812 137.804688 98.832031 136.347656 99.691406 134.910156 C 100.554688 133.472656 101.449219 132.058594 102.378906 130.664062 C 103.308594 129.273438 104.273438 127.902344 105.269531 126.558594 C 106.265625 125.210938 107.296875 123.894531 108.359375 122.597656 C 109.421875 121.304688 110.511719 120.035156 111.636719 118.792969 C 112.761719 117.554688 113.914062 116.339844 115.097656 115.15625 C 116.28125 113.972656 117.496094 112.816406 118.734375 111.691406 C 119.976562 110.566406 121.242188 109.472656 122.535156 108.410156 C 123.832031 107.347656 125.148438 106.316406 126.496094 105.320312 C 127.839844 104.320312 129.207031 103.359375 130.597656 102.425781 C 131.992188 101.496094 133.40625 100.601562 134.839844 99.738281 C 136.277344 98.878906 137.734375 98.050781 139.210938 97.261719 C 140.683594 96.472656 142.179688 95.71875 143.691406 95.003906 C 145.207031 94.289062 146.738281 93.609375 148.28125 92.96875 C 149.828125 92.328125 151.390625 91.726562 152.96875 91.160156 C 154.542969 90.597656 156.132812 90.070312 157.734375 89.585938 C 159.335938 89.097656 160.949219 88.652344 162.574219 88.246094 C 164.195312 87.835938 165.828125 87.472656 167.472656 87.144531 C 169.113281 86.816406 170.761719 86.53125 172.417969 86.285156 C 174.074219 86.039062 175.734375 85.835938 177.398438 85.671875 C 179.066406 85.507812 180.734375 85.382812 182.40625 85.300781 C 184.078125 85.21875 185.75 85.175781 187.425781 85.175781 C 189.101562 85.175781 190.773438 85.21875 192.445312 85.300781 C 194.117188 85.382812 195.785156 85.507812 197.453125 85.671875 C 199.117188 85.835938 200.777344 86.039062 202.433594 86.285156 C 204.089844 86.53125 205.738281 86.816406 207.378906 87.144531 C 209.023438 87.472656 210.65625 87.835938 212.277344 88.246094 C 213.902344 88.652344 215.515625 89.097656 217.117188 89.585938 C 218.71875 90.070312 220.308594 90.597656 221.882812 91.160156 C 223.460938 91.726562 225.023438 92.328125 226.570312 92.96875 C 228.113281 93.609375 229.644531 94.289062 231.160156 95.003906 C 232.671875 95.71875 234.167969 96.472656 235.644531 97.261719 C 237.117188 98.050781 238.574219 98.878906 240.011719 99.738281 C 241.445312 100.601562 242.859375 101.496094 244.253906 102.425781 C 245.644531 103.359375 247.011719 104.320312 248.355469 105.320312 C 249.703125 106.316406 251.019531 107.347656 252.316406 108.410156 C 253.609375 109.472656 254.875 110.566406 256.117188 111.691406 C 257.355469 112.816406 258.570312 113.972656 259.753906 115.15625 C 260.9375 116.339844 262.089844 117.554688 263.214844 118.792969 C 264.339844 120.035156 265.429688 121.304688 266.492188 122.597656 C 267.554688 123.894531 268.585938 125.210938 269.582031 126.558594 C 270.578125 127.902344 271.542969 129.273438 272.472656 130.664062 C 273.402344 132.058594 274.296875 133.472656 275.160156 134.910156 C 276.019531 136.347656 276.84375 137.804688 277.632812 139.28125 C 278.421875 140.757812 279.175781 142.253906 279.890625 143.769531 C 280.605469 145.28125 281.285156 146.8125 281.925781 148.359375 C 282.566406 149.910156 283.167969 151.472656 283.730469 153.046875 C 284.296875 154.625 284.820312 156.214844 285.304688 157.816406 C 285.792969 159.421875 286.238281 161.035156 286.644531 162.660156 C 287.050781 164.285156 287.417969 165.917969 287.746094 167.5625 C 288.070312 169.203125 288.359375 170.855469 288.605469 172.511719 C 288.847656 174.167969 289.054688 175.828125 289.21875 177.496094 C 289.382812 179.164062 289.503906 180.832031 289.585938 182.507812 C 289.667969 184.179688 289.710938 185.855469 289.710938 187.527344 Z M 289.710938 187.527344 " fill-opacity="1" fill-rule="nonzero"/><path fill="#c0e2fe" d="M 289.710938 187.527344 C 289.710938 164.785156 282.277344 143.761719 269.746094 126.734375 L 105.105469 126.734375 C 92.574219 143.761719 85.140625 164.785156 85.140625 187.527344 C 85.140625 210.273438 92.574219 231.296875 105.105469 248.324219 L 269.746094 248.324219 C 282.277344 231.296875 289.710938 210.273438 289.710938 187.527344 Z M 289.710938 187.527344 " fill-opacity="1" fill-rule="nonzero"/><path fill="#ffc943" d="M 338.304688 229.085938 L 36.546875 229.085938 C 32.246094 229.085938 29.175781 224.90625 30.464844 220.785156 L 39.558594 191.21875 C 40.296875 188.757812 40.296875 186.113281 39.558594 183.71875 L 30.464844 154.210938 C 29.175781 150.09375 32.246094 145.914062 36.546875 145.914062 L 338.304688 145.914062 C 342.605469 145.914062 345.675781 150.09375 344.386719 154.210938 L 335.292969 183.777344 C 334.554688 186.238281 334.554688 188.882812 335.292969 191.277344 L 344.386719 220.847656 C 345.675781 224.964844 342.605469 229.085938 338.304688 229.085938 Z M 338.304688 229.085938 " fill-opacity="1" fill-rule="nonzero"/><path fill="#ffba2c" d="M 335.292969 191.277344 C 334.554688 188.820312 334.554688 186.175781 335.292969 183.777344 L 344.386719 154.210938 C 345.675781 150.09375 342.605469 145.914062 338.304688 145.914062 L 317.847656 145.914062 C 322.148438 145.914062 325.21875 150.09375 323.929688 154.210938 L 314.835938 183.777344 C 314.097656 186.238281 314.097656 188.882812 314.835938 191.277344 L 323.929688 220.847656 C 325.21875 224.964844 322.148438 229.144531 317.847656 229.144531 L 338.304688 229.144531 C 342.605469 229.144531 345.675781 224.964844 344.386719 220.847656 Z M 335.292969 191.277344 " fill-opacity="1" fill-rule="nonzero"/><path fill="#fd6873" d="M 82.5625 183.472656 C 77.953125 181.75 73.714844 179.90625 72.425781 179.351562 C 71.378906 178.492188 71.441406 177.386719 71.503906 176.894531 C 71.625 176.21875 72.054688 174.621094 74.511719 173.882812 C 79.796875 172.285156 84.710938 176.15625 84.832031 176.28125 C 86.800781 177.878906 89.6875 177.632812 91.285156 175.726562 C 92.941406 173.757812 92.695312 170.871094 90.730469 169.210938 C 90.363281 168.902344 82.007812 162.019531 71.871094 165.089844 C 66.773438 166.628906 63.085938 170.6875 62.410156 175.664062 C 61.734375 180.335938 63.761719 184.824219 67.695312 187.34375 C 67.878906 187.46875 68.125 187.589844 68.308594 187.714844 C 68.554688 187.835938 73.652344 190.109375 79.425781 192.199219 C 81.085938 192.816406 84.832031 194.535156 84.34375 197.363281 C 83.972656 199.453125 81.394531 201.667969 77.769531 201.667969 C 74.023438 201.667969 70.457031 200.191406 68.183594 197.671875 C 66.464844 195.765625 63.578125 195.644531 61.671875 197.363281 C 59.769531 199.085938 59.644531 201.976562 61.367188 203.878906 C 65.359375 208.308594 71.503906 210.949219 77.769531 210.949219 C 85.570312 210.949219 92.207031 205.972656 93.433594 199.085938 C 94.292969 193.738281 91.960938 186.976562 82.5625 183.472656 Z M 82.5625 183.472656 " fill-opacity="1" fill-rule="nonzero"/><path fill="#fd6873" d="M 128.144531 167.796875 C 128.144531 167.734375 128.082031 167.734375 128.082031 167.671875 C 127.222656 165.644531 125.257812 164.292969 123.042969 164.292969 C 120.832031 164.292969 118.867188 165.644531 118.007812 167.671875 C 118.007812 167.734375 118.007812 167.734375 117.945312 167.796875 L 103.9375 204.558594 C 103.019531 206.953125 104.246094 209.597656 106.582031 210.519531 C 107.132812 210.703125 107.6875 210.828125 108.238281 210.828125 C 110.082031 210.828125 111.863281 209.71875 112.539062 207.875 L 114.875 201.667969 L 131.03125 201.667969 L 133.367188 207.875 C 134.285156 210.273438 136.929688 211.441406 139.324219 210.582031 C 141.71875 209.660156 142.886719 207.015625 142.027344 204.617188 Z M 118.4375 192.386719 L 123.042969 180.335938 L 127.589844 192.386719 Z M 118.4375 192.386719 " fill-opacity="1" fill-rule="nonzero"/><path fill="#fd6873" d="M 273.492188 201.542969 L 265.015625 201.542969 L 265.015625 168.839844 C 265.015625 166.320312 262.925781 164.230469 260.40625 164.230469 C 257.890625 164.230469 255.800781 166.320312 255.800781 168.839844 L 255.800781 206.15625 C 255.800781 208.675781 257.890625 210.765625 260.40625 210.765625 L 273.492188 210.765625 C 276.011719 210.765625 278.101562 208.675781 278.101562 206.15625 C 278.101562 203.636719 276.011719 201.542969 273.492188 201.542969 Z M 273.492188 201.542969 " fill-opacity="1" fill-rule="nonzero"/><path fill="#fd6873" d="M 310.105469 201.542969 L 298.988281 201.542969 L 298.988281 192.140625 L 308.9375 192.140625 C 311.457031 192.140625 313.546875 190.050781 313.546875 187.527344 C 313.546875 185.007812 311.457031 182.917969 308.9375 182.917969 L 298.988281 182.917969 L 298.988281 173.511719 L 310.105469 173.511719 C 312.625 173.511719 314.714844 171.421875 314.714844 168.902344 C 314.714844 166.382812 312.625 164.292969 310.105469 164.292969 L 294.378906 164.292969 C 291.859375 164.292969 289.773438 166.382812 289.773438 168.902344 L 289.773438 206.214844 C 289.773438 208.738281 291.859375 210.828125 294.378906 210.828125 L 310.105469 210.828125 C 312.625 210.828125 314.714844 208.738281 314.714844 206.214844 C 314.714844 203.695312 312.625 201.542969 310.105469 201.542969 Z M 310.105469 201.542969 " fill-opacity="1" fill-rule="nonzero"/><path fill="#fd6873" d="M 229.015625 164.292969 L 218.941406 164.292969 C 216.421875 164.292969 214.332031 166.382812 214.332031 168.902344 L 214.332031 206.214844 C 214.332031 208.738281 216.421875 210.828125 218.941406 210.828125 C 221.460938 210.828125 223.546875 208.738281 223.546875 206.214844 L 223.546875 194.597656 C 225.574219 194.597656 227.785156 194.597656 229.015625 194.597656 C 237.308594 194.597656 244.066406 187.835938 244.066406 179.476562 C 244.066406 171.054688 237.308594 164.292969 229.015625 164.292969 Z M 229.015625 185.316406 C 227.726562 185.316406 225.574219 185.316406 223.546875 185.316406 L 223.546875 173.453125 L 229.015625 173.453125 C 232.148438 173.453125 234.851562 176.15625 234.851562 179.351562 C 234.851562 182.550781 232.148438 185.316406 229.015625 185.316406 Z M 229.015625 185.316406 " fill-opacity="1" fill-rule="nonzero"/><path fill="#fd6873" d="M 195.597656 168.65625 C 195.105469 166.257812 193.015625 164.414062 190.558594 164.292969 C 188.101562 164.167969 185.828125 165.707031 185.089844 168.042969 C 185.089844 168.105469 185.03125 168.164062 185.03125 168.226562 L 178.273438 191.832031 L 171.269531 168.164062 C 171.269531 168.105469 171.207031 168.042969 171.207031 167.980469 C 170.410156 165.644531 168.136719 164.109375 165.679688 164.292969 C 163.222656 164.476562 161.132812 166.257812 160.703125 168.78125 L 154.128906 205.109375 C 153.699219 207.628906 155.359375 210.027344 157.816406 210.457031 C 160.335938 210.886719 162.730469 209.230469 163.160156 206.769531 L 166.90625 186.113281 L 173.050781 207.015625 C 173.050781 207.078125 173.113281 207.140625 173.113281 207.199219 C 173.847656 209.414062 175.9375 210.886719 178.273438 210.886719 C 180.605469 210.886719 182.695312 209.351562 183.433594 207.140625 C 183.433594 207.078125 183.496094 207.015625 183.496094 206.953125 L 189.453125 186.113281 L 193.445312 206.894531 C 193.9375 209.414062 196.332031 211.011719 198.851562 210.582031 C 201.371094 210.089844 202.96875 207.691406 202.539062 205.171875 Z M 195.597656 168.65625 " fill-opacity="1" fill-rule="nonzero"/></svg>